# xmcd CD database file
#
# Track frame offsets:
#	150
#	6790
#	18890
#	35383
#	43333
#	56655
#	69933
#	88425
#	130775
#	138620
#
# Disc length: 2057 seconds
#
# Revision: 0
# Processed by: cddbd v1.5.1PL2 Copyright (c) Steve Scherf et al.
# Submitted via: CDex 1.51
#
DISCID=8708070a
DTITLE=杉崎ゆきる - ラグーンエンジンＣＤドラマ　「桜吹雪に消えた謎〜後編〜」
DYEAR=2003
DGENRE=Anime
TTITLE0=幻
TTITLE1=消えた桜の木
TTITLE2=等軍家
TTITLE3=等軍家〜夜
TTITLE4=みかんの事情
TTITLE5=龍波公園
TTITLE6=すれ違う心
TTITLE7=桜吹雪の戦い
TTITLE8=夕焼け
TTITLE9=カ・ガ・ヤ・ケ！
EXTD=YEAR: 2003
EXTT0=
EXTT1=
EXTT2=
EXTT3=
EXTT4=
EXTT5=
EXTT6=
EXTT7=
EXTT8=
EXTT9=
PLAYORDER=
